{"title":"Chaplin (2011)~Bengali~SaNRiM~","uid":8535074,"size":526292799,"categoryP":"video","categoryS":"movies","magnet":"?xt=urn:btih:30d27fd5af95643ff5c3a6f38c7a5f5de6858e76&amp;dn=Chaplin+%282011%29%7EBengali%7ESaNRiM%7E&amp;tr=udp%3A%2F%2Ftracker.openbittorrent.com%3A80&amp;tr=udp%3A%2F%2Fopen.demonii.com%3A1337&amp;tr=udp%3A%2F%2Ftracker.coppersurfer.tk%3A6969&amp;tr=udp%3A%2F%2Fexodus.desync.com%3A6969","seeders":1,"leechers":0,"uploader":"SaNRiM","files":1,"time":1370248883,"description":"                 &lt;a href=&quot; http://www.imdb.com/title/tt2040306/&quot; rel=&quot;nofollow&quot; target=&quot;_NEW&quot;&gt; http://www.imdb.com/title/tt2040306/&lt;/a&gt;\n\nPlot:\nBangshi Das is an impersonator of Charlie Chaplin. He earns peanuts by being the 'joker' at birthday parties. However, he prefers to call himself an actor rather than a worker. His life circles around his son who is the greatest critic of his performances. Poverty never seems bitter as the father-son duo knows how to make fun of it.\n\nInfo:\n\nGeneral\n\nComplete name : Chaplin (2011)~Bengali~SaNRiMChaplin~SaNRiM.mkv\nFormat : Matroska\nFormat version : Version 4 / Version 2\nFile size : 502 MiB\nDuration : 2h 12mn\nOverall bit rate mode : Variable\nOverall bit rate : 529 Kbps\n\nVideo\n\n\nID : 1\nFormat : AVC\nFormat/Info : Advanced Video Codec\nFormat profile : &lt;a class=&quot;__cf_email__&quot; href=&quot;/cdn-cgi/l/email-protection&quot; data-cfemail=&quot;afe7c6c8c7efe39b819f&quot;&gt;[email&amp;#160;protected]&lt;/a&gt;&lt;script cf-hash='f9e31' type=&quot;text/javascript&quot;&gt;\n/* &lt;![CDATA[ */!function(){try{var t=&quot;currentScript&quot;in document?document.currentScript:function(){for(var t=document.getElementsByTagName(&quot;script&quot;),e=t.length;e--;)if(t[e].getAttribute(&quot;cf-hash&quot;))return t[e]}();if(t&amp;&amp;t.previousSibling){var e,r,n,i,c=t.previousSibling,a=c.getAttribute(&quot;data-cfemail&quot;);if(a){for(e=&quot;&quot;,r=parseInt(a.substr(0,2),16),n=2;a.length-n;n+=2)i=parseInt(a.substr(n,2),16)^r,e+=String.fromCharCode(i);e=document.createTextNode(e),c.parentNode.replaceChild(e,c)}}}catch(u){}}();/* ]]&gt; */&lt;/script&gt;\nFormat settings, CABAC : Yes\nFormat settings, ReFrames : 3 frames\nCodec ID : V_MPEG4/ISO/AVC\nDuration : 2h 12mn\nBit rate mode : Variable\nBit rate : 400 Kbps\nMaximum bit rate : 25.0 Mbps\nWidth : 720 pixels\nHeight : 404 pixels\nDisplay aspect ratio : 16:9\nFrame rate mode : Constant\nFrame rate : 23.962 fps\nOriginal frame rate : 23.976 fps\nColor space : YUV\nChroma subsampling : 4:2:0\nBit depth : 8 bits\nScan type : Progressive\nBits/(Pixel*Frame) : 0.057\nStream size : 370 MiB (74%)\nWriting library : x264 core 114 r1924 08d04a4\nDefault : Yes\nForced : No\n\nAudio\n\nID : 2\nFormat : MPEG Audio\nFormat version : Version 1\nFormat profile : Layer 2\nCodec ID : A_MPEG/L2\nCodec ID/Hint : MP2\nDuration : 2h 12mn\nBit rate mode : Constant\nBit rate : 128 Kbps\nChannel(s) : 2 channels\nSampling rate : 44.1 KHz\nCompression mode : Lossy\nStream size : 121 MiB (24%)\nDefault : Yes\nForced : No\n\nScreen Shot: &lt;a href=&quot;\nhttp://i.imgbox.com/acz9LlOz.png&quot; rel=&quot;nofollow&quot; target=&quot;_NEW&quot;&gt;\nhttp://i.imgbox.com/acz9LlOz.png&lt;/a&gt; &lt;a href=&quot;\nhttp://i.imgbox.com/adogSpBZ.png&quot; rel=&quot;nofollow&quot; target=&quot;_NEW&quot;&gt;\nhttp://i.imgbox.com/adogSpBZ.png&lt;/a&gt; &lt;a href=&quot;\nhttp://i.imgbox.com/abwfK9jr.png&quot; rel=&quot;nofollow&quot; target=&quot;_NEW&quot;&gt;\nhttp://i.imgbox.com/abwfK9jr.png&lt;/a&gt; &lt;a href=&quot;\nhttp://i.imgbox.com/actdGySE.png&quot; rel=&quot;nofollow&quot; target=&quot;_NEW&quot;&gt;\nhttp://i.imgbox.com/actdGySE.png&lt;/a&gt; &lt;a href=&quot;\nhttp://i.imgbox.com/adqyu4EA.png&quot; rel=&quot;nofollow&quot; target=&quot;_NEW&quot;&gt;\nhttp://i.imgbox.com/adqyu4EA.png&lt;/a&gt; &lt;a href=&quot;\nhttp://i.imgbox.com/acnV6zOM.png&quot; rel=&quot;nofollow&quot; target=&quot;_NEW&quot;&gt;\nhttp://i.imgbox.com/acnV6zOM.png&lt;/a&gt;\n                                 \n                       Special thanks to:\n                           Robin5555\n\n \n                  If you like my work please comment\n                      Any request? Just PM me\n                   Please seed long after download\n                         Thank you &amp; enjoy\n","torrent":{"xt":"urn:btih:30d27fd5af95643ff5c3a6f38c7a5f5de6858e76","amp;dn":"Chaplin+%282011%29%7EBengali%7ESaNRiM%7E","amp;tr":["udp%3A%2F%2Ftracker.openbittorrent.com%3A80","udp%3A%2F%2Fopen.demonii.com%3A1337","udp%3A%2F%2Ftracker.coppersurfer.tk%3A6969","udp%3A%2F%2Fexodus.desync.com%3A6969"],"infoHash":"30d27fd5af95643ff5c3a6f38c7a5f5de6858e76","infoHashBuffer":{"type":"Buffer","data":[48,210,127,213,175,149,100,63,245,195,166,243,140,122,95,93,230,133,142,118]},"announce":[],"urlList":[]}}